<svg xmlns="http://www.w3.org/2000/svg"><symbol id="causes" viewBox="0 0 256 256"><circle cx="128" cy="129.1" r="128" fill="#f3f7f8"/><circle cx="128" cy="129.1" r="91" fill="none" stroke="#449bc0" stroke-miterlimit="10" stroke-width="6"/><ellipse cx="128" cy="130.1" fill="none" stroke="#449bc0" stroke-miterlimit="10" stroke-width="6" rx="90" ry="56" transform="rotate(-89.6 127.95 130.16)"/><ellipse cx="128" cy="130.1" fill="none" stroke="#449bc0" stroke-miterlimit="10" stroke-width="6" rx="90" ry="20.5" transform="rotate(-89.6 127.95 130.16)"/><path fill="none" stroke="#449bc0" stroke-miterlimit="10" stroke-width="6" d="M75.5 54.3s51.8 31.3 106 .7m-121 135.2s65.5 31.4 134 .9M48.3 85.1s79.9 44 160 1.1M37 121s90.5 44.6 182 1.3M40.8 155s86.9 47.1 174 1.2"/><path fill="#ce2d35" stroke="#e65b84" stroke-linecap="round" stroke-miterlimit="10" stroke-width="6.65" d="M128 179l48.9-48.9a25.6 25.6 0 0 0 0-36.2 25.6 25.6 0 0 0-36.2 0L128 106.6l-12.7-12.7a25.6 25.6 0 0 0-36.2 0 25.6 25.6 0 0 0 0 36.2L128 179"/></symbol><symbol id="instagram" viewBox="0 0 256 256"><path fill="#449bc0" d="M170.2 256H85.8a20 20 0 0 0-2.4-.4c-9.9-.3-19.7-.7-29.4-3.2-21.8-5.4-37.6-18.1-46.6-38.9-4.9-11.2-6.3-23.2-6.8-35.4-.1-2.6-.4-5.3-.6-7.9V85.8a20 20 0 0 0 .4-2.4c.3-9.8.7-19.7 3.2-29.4C9 32.2 21.7 16.4 42.5 7.4 53.7 2.5 65.7 1.1 77.9.6l7.9-.6h84.4a20 20 0 0 0 2.4.4c9.9.3 19.7.7 29.4 3.2 21.8 5.4 37.6 18.1 46.6 38.9 4.9 11.2 6.3 23.2 6.8 35.4.1 2.6.4 5.3.6 7.9v84.4a20 20 0 0 0-.4 2.4c-.3 9.9-.7 19.7-3.2 29.4-5.4 21.8-18.1 37.6-38.9 46.6-11.2 4.9-23.2 6.3-35.4 6.8zM22.9 127.9h.4c0 10.7-.2 21.5 0 32.2s.7 20 1.7 29.9 4.3 18.5 10.9 26c9 10.4 21 14.7 34.1 15.5 14.9.9 29.8 1.2 44.7 1.3s30.3.2 45.4-.1c10-.2 20-.7 29.9-1.7s18.5-4.3 26-10.9c10.4-9 14.7-21 15.5-34.1.9-14.9 1.2-29.8 1.3-44.7s.2-30.3-.1-45.4c-.2-10-.7-20-1.7-29.9s-4.3-18.5-10.9-26c-9-10.4-20.9-14.7-34.1-15.5-15.1-.9-30.3-1.1-45.4-1.3s-29.7-.2-44.5.2c-11 .2-22.2.5-33.1 2.1-18.6 2.9-31.2 13.6-36.3 32.1A85.3 85.3 0 0 0 24 76.4c-.7 17.1-.8 34.3-1.1 51.5z"/><path fill="#449bc0" d="M193.8 128.1a65.8 65.8 0 1 1-65.6-65.9 65.8 65.8 0 0 1 65.6 65.9zm-65.9 42.5c23.3 0 42.7-19.1 42.7-42.1s-18.9-43.1-42.1-43.1-43.1 18.9-43.1 42.5a42.7 42.7 0 0 0 42.5 42.7zm83.8-110.9a15.5 15.5 0 0 1-15.5 15.5 15.7 15.7 0 0 1-15.4-15.6 15.5 15.5 0 0 1 30.9.1z"/></symbol><symbol id="arrow-right" viewBox="0 0 256 256"><circle cx="128" cy="128" r="125" fill="#fff"/><path fill="#e65b84" d="M87.5 128V66.7a8.5 8.5 0 0 1 12.7-7.3L153.3 90l53.1 30.6a8.5 8.5 0 0 1 0 14.8L153.3 166l-53.1 30.6a8.5 8.5 0 0 1-12.7-7.3z"/></symbol><symbol id="facebook" viewBox="0 0 256 256"><path fill="#449bc0" d="M147.5 128.7v-19.1a50.3 50.3 0 0 1 .3-8.7c1.9-9.9 9.1-15.6 19.7-15.7 5.7-.1 11.5 0 17.3 0a18.3 18.3 0 0 0 .2-2.1c0-9 0-18 .1-27 0-1.7-.6-2.4-2.2-2.5-10-.7-20-1.9-30.1-1.9-12.1.1-23.1 3.9-31.7 13a39.7 39.7 0 0 0-11.3 24c-1 9.2-.9 18.6-1.2 27.9-.1 3.9 0 7.8 0 11.9H76.2c-.1 1.1-.2 2-.2 2.9 0 10.4.1 20.9 0 31.4 0 2.1.5 2.8 2.7 2.8 9-.2 18-.1 27-.1h2.8v88.7C55.8 247.3 2.7 200.3 1 131.8a127 127 0 0 1 253.4-15.9c7 72.2-45.2 129.4-106.7 138.3v-88.6h29.6l5.7-36.9z"/></symbol><symbol id="close-delete" viewBox="0 0 256 256"><circle cx="128" cy="128" r="125" fill="#f3f7f8"/><rect width="187.8" height="29.7" x="34.1" y="113.1" fill="#ce2d35" rx="14.9" transform="rotate(-45 128.01 127.977)"/><rect width="187.8" height="29.7" x="34.1" y="113.1" fill="#ce2d35" rx="14.9" transform="rotate(-135 127.996 127.99)"/></symbol><symbol id="arrow-left" viewBox="0 0 256 256"><circle cx="128" cy="128" r="125" fill="#fff"/><path fill="#e65b84" d="M168.5 128V66.7a8.5 8.5 0 0 0-12.7-7.3L102.7 90l-53.1 30.6a8.5 8.5 0 0 0 0 14.8l53.1 30.6 53.1 30.6a8.5 8.5 0 0 0 12.7-7.3z"/></symbol><symbol id="cart" viewBox="0 0 256 256"><path fill="none" stroke="#e65b84" stroke-linecap="round" stroke-linejoin="round" stroke-width="28.43" d="M15 19h32.7l11.5 48.8L241 80.9v85.3L63 163l-5.7 37h177"/><path fill="none" stroke="#e65b84" stroke-linecap="round" stroke-linejoin="round" stroke-width="29.66" d="M60.2 69.9v94.9"/><circle cx="64" cy="235" r="17" fill="#e65b84"/><circle cx="224" cy="235" r="17" fill="#e65b84"/></symbol><symbol id="fav-added" viewBox="0 0 256 256"><path fill="#ce2d35" stroke="#e65b84" stroke-linecap="round" stroke-miterlimit="10" stroke-width="27.69" d="M128 221.7l98.9-99a51.6 51.6 0 0 0 0-73.2 51.6 51.6 0 0 0-73.2 0L128 75.1l-25.7-25.6a51.6 51.6 0 0 0-73.2 0 51.6 51.6 0 0 0 0 73.2l98.9 99"/></symbol><symbol id="menu" viewBox="0 0 256 256"><rect width="256" height="40.49" y="25.2" fill="#e65b84" rx="20.2"/><rect width="256" height="40.49" y="109.8" fill="#e65b84" rx="20.2"/><rect width="256" height="40.49" y="194.3" fill="#e65b84" rx="20.2"/></symbol><symbol id="product-source" viewBox="0 0 256 256"><circle cx="128" cy="128" r="128" fill="#f3f7f8"/><path fill="#449bc0" d="M48.2 202a8.8 8.8 0 0 1-8.9-9.3c2.3-38.9 18.5-69.1 38.1-69.1s35.9 30.2 38.2 69.1a8.8 8.8 0 0 1-8.9 9.3z"/><ellipse cx="77.4" cy="101.3" fill="#449bc0" rx="30.8" ry="28.6"/><path d="M77.9 94.1c0 9.9-7.4 17.9-16.5 17.9S45 104 45 94.1"/><path d="M77.5 94.1c0 9.9 7.3 17.9 16.4 17.9s16.5-8 16.5-17.9"/><path fill="#f2cc46" d="M142.3 154.1v-57c0-18.8 16.4-34.1 36.7-34.1s36.7 15.3 36.7 34.1v57"/><path fill="#449bc0" d="M208.3 202a8.8 8.8 0 0 0 8.8-9.3c-2.3-38.9-18.5-69.1-38.1-69.1s-35.9 30.2-38.2 69.1a8.9 8.9 0 0 0 8.9 9.3z"/><ellipse cx="179" cy="101.3" fill="#449bc0" rx="30.8" ry="28.6"/><path d="M179.4 94.1c0 9.9-7.4 17.9-16.5 17.9s-16.4-8-16.4-17.9"/><path d="M179 94.1c0 9.9 7.3 17.9 16.4 17.9s16.5-8 16.5-17.9"/><path fill="#f2cc46" d="M127.9 91.5c-.7-32 30.4-33.8 30.4-33.8S127.2 56 127.9 24c.8 32-30.4 33.7-30.4 33.7s31.2 1.8 30.4 33.8zM89 62.9c-.3-13.5 12.8-14.2 12.8-14.2S88.7 48 89 34.5c.3 13.5-12.8 14.2-12.8 14.2s13.1.7 12.8 14.2z"/></symbol><symbol id="fav-add" viewBox="0 0 256 256"><path fill="none" stroke="#e65b84" stroke-linecap="round" stroke-miterlimit="10" stroke-width="27.69" d="M128 221.7l98.9-99a51.6 51.6 0 0 0 0-73.2 51.6 51.6 0 0 0-73.2 0L128 75.1l-25.7-25.6a51.6 51.6 0 0 0-73.2 0 51.6 51.6 0 0 0 0 73.2l98.9 99"/><rect width="93.9" height="14.47" x="139.1" y="164" fill="#ce2d35" stroke="#ce2d35" stroke-miterlimit="10" stroke-width="13" rx="7.2"/><rect width="93.9" height="14.85" x="139.1" y="163.6" fill="#ce2d35" stroke="#ce2d35" stroke-miterlimit="10" stroke-width="13" rx="7.4" transform="rotate(-90 186.05 171.05)"/></symbol></svg>