<svg height="186.5" viewBox="0 0 256 186.5" width="256" xmlns="http://www.w3.org/2000/svg"><g fill="#df1e2e"><path d="m16.3 128c-8.4-9.6-16.5-19.9-16.3-33.3s6.8-25.8 15.6-35.1c12.8-13.5 15.6 6.4 15.2 15.7-.1 1.6-.3 4.7-.5 6.6l-8.9 3c.2-1.9.2-5.6.2-7.3 0-10.4-1.3-14.4-5.9-10.8-7.5 6.1-6.8 18-6.8 27.1s-.4 20.4 7.4 26.4c4.8 3.5 5.9-1.6 5.9-11.8 0-3.6-.1-7-.3-9.9l9 1.8c.3 2.6.2 5.8.3 8.2.2 6.9-1.9 34.3-14.9 19.4z"/><path d="m62.7 160.2v-61.3l-14.3-.7v53.4c-4.1-2.7-6.2-4.1-10.2-7v-102.6c4-2.9 6.1-4.3 10.2-7v48.4l14.3-1.4v-55.6c4.3-2.4 6.5-3.6 10.9-5.7v145.2c-4.4-2.2-6.6-3.3-10.9-5.7z"/><path d="m84.5 170.9v-155.2c10.1-4 20-7.8 30.5-10.4v20.4c-7.7 1.5-11.6 2.4-19.2 4.5v50.2l17.1-.8v22.1l-17.1-.5v54.6c8.4 2.3 12.7 3.3 21.2 4.9v20.9a308.8 308.8 0 0 1 -32.5-10.7z"/><path d="m165.2 186.2c-3.9.2-5.9.3-9.9.3q-3-50.4-5.9-100.8c-.3-5.6-.7-12.8-1-17-.3 4.2-.6 11.2-1 17-2.1 33.3-4.2 66.7-6.4 100-4.1-.4-6.2-.7-10.4-1.3q-5.5-90.1-11.2-180.1c4.3-1 6.5-1.5 10.9-2.2l5.1 98.3c.4 8.1.9 17 1.1 22.5.3-5.5.7-14.6 1.2-22.7q3-49.9 6.1-99.7c3.8-.3 5.7-.4 9.5-.5l5.7 100c.5 8.5.9 18 1.2 24 .4-6 .8-15.5 1.2-23.7 1.8-33.3 3.5-66.6 5.3-100 4 .3 6 .6 10 1.2-3.7 61.5-7.7 123.1-11.5 184.7z"/><path d="m182.2 184q.6-90.7 0-181.6a109 109 0 0 1 28.3 9.2c0 7.5.1 11.3.4 18.9a116.1 116.1 0 0 0 -17.7-5.1c.5 18 1 36 1.4 54 6.8.3 10.2.5 16.8 1 .2 8.3.3 12.5.1 20.8-6.6.3-10 .4-16.9.5-.2 19.7-.9 39.3-1.4 58.9a138.3 138.3 0 0 0 19.6-5.6c-.4 7.6-.5 11.5-.6 19.1a109 109 0 0 1 -30 9.9z"/><path d="m233.8 160.4a92.1 92.1 0 0 1 -15.7 10.6c1.5-52.4 1.4-103 0-155.5a96.2 96.2 0 0 1 15 10.1c16.1 14.5 23.7 52.2 22.8 71.9s-7.1 50-22.1 62.9zm-.8-119.7-4.6-2.5a649.3 649.3 0 0 1 .1 109.8l5.1-2.9c12.1-9.3 12.2-34.5 12.6-47.2.5-14.6.2-45.6-13.2-57.2z"/></g></svg>