<svg height="23.3" viewBox="0 0 32 23.3" width="32" xmlns="http://www.w3.org/2000/svg"><g fill="#df1e2e"><path d="m2 16c-1.9-1.8-2-2.9-2-4.2a5.3 5.3 0 0 1 2-4.4c1.5-1.5 1.9-.1 1.8 2v.8l-1.1.4v-.9c0-1.3-.1-1.8-.7-1.3s-.9 1.1-.9 3.3.3 2.8.9 3.3.8-.2.8-1.4a5.3 5.3 0 0 0 -.1-1.3l1.2.2v1.1c0 2.3-.4 3.8-1.9 2.4z"/><path d="m7.8 20v-7.6h-1.7v6.6l-1.3-.9v-12.8a6 6 0 0 1 1.3-.9v6l1.7-.2v-6.9l1.4-.7v18.1z"/><path d="m10.6 21.4v-19.4a17.1 17.1 0 0 1 3.8-1.3v2.5l-2.4.6v6.3l2.1-.2v2.8h-2.1v6.9l2.6.6v2.6a31 31 0 0 1 -4-1.4z"/><path d="m20.7 23.3h-1.3s-.4-7.7-.7-12.6a16.2 16.2 0 0 1 -.1-2.1c-.1.5-.1 1.4-.2 2.1-.3 4.8-.8 12.5-.8 12.5l-1.3-.2c-.5-9.2-.8-13.7-1.4-22.5l1.4-.2s.4 7.3.6 12.2c.1 1.1.1 2.2.2 2.9s.1-1.9.1-2.9c.3-4.9.8-12.4.8-12.4h1.2s.4 7.6.7 12.5c0 1.1.1 2.2.1 3 .1-.8.1-1.9.2-3 .2-4.8.6-12.5.6-12.5l1.3.2c-.6 9-.9 13.6-1.4 23z"/><path d="m22.8 23v-22.7a14.2 14.2 0 0 1 3.5 1.1 18.5 18.5 0 0 0 .1 2.4l-2.2-.6c0 2.7.1 4 .1 6.7h2.1a11.3 11.3 0 0 1 0 2.6h-2.1c0 3-.1 4.4-.1 7.4l2.4-.7a18.5 18.5 0 0 0 -.1 2.4 12.3 12.3 0 0 1 -3.7 1.4z"/><path d="m29.2 20.1a12.7 12.7 0 0 1 -1.9 1.3v-19.5l1.8 1.3c1.4 1.1 3.2 3.8 2.9 9s-1.3 6.7-2.8 7.9zm-.1-15-.6-.3a78.4 78.4 0 0 1 .1 13.7l.6-.4c.8-.4 1.4-1.5 1.6-5.9s-.9-6.7-1.7-7.1z"/></g></svg>