<svg height="65" viewBox="0 0 65 65" width="65" xmlns="http://www.w3.org/2000/svg"><g fill="#df1e2e"><path d="m7.1 40.4c-3.5-3.4-3.7-5.4-3.7-7.6s.8-5.4 3.6-8 3.4-.3 3.4 3.6c0 .3-.1 1-.1 1.5l-2 .6v-1.6c0-2.4-.2-3.3-1.3-2.4s-1.6 2-1.6 6.1.5 5.1 1.7 6 1.4-.4 1.4-2.7c0-.8-.1-1.6-.1-2.2l2 .4a11.5 11.5 0 0 1 .1 1.8c0 4.3-.8 6.9-3.4 4.5z"/><path d="m17.7 47.7v-14h-3.3v12l-2.3-1.6v-23.3l2.3-1.6v11l3.3-.3v-12.6a11.2 11.2 0 0 1 2.4-1.3v33z"/><path d="m22.6 50.1v-35.3a50.7 50.7 0 0 1 6.9-2.3v4.6a33.4 33.4 0 0 0 -4.3 1v11.4l3.9-.2v5.1l-3.9-.2v12.5l4.8 1.1v4.7a39.9 39.9 0 0 1 -7.4-2.4z"/><path d="m41 53.6h-2.3s-.8-13.9-1.3-22.9c-.1-1.2-.2-2.9-.3-3.8 0 .9-.1 2.5-.2 3.8-.5 8.8-1.4 22.8-1.4 22.8l-2.4-.3c-.8-13.7-1.7-27.3-2.6-41l2.5-.5s.7 13.4 1.2 22.4c.1 1.8.2 3.8.2 5.1.1-1.3.2-3.3.3-5.2.5-8.9 1.4-22.6 1.4-22.6h2.2s.7 13.8 1.2 22.6c.2 1.9.2 4.1.3 5.5.1-1.4.2-3.6.3-5.5.5-8.7 1.2-22.7 1.2-22.7l2.3.3c-.8 14-1.8 28-2.6 42z"/><path d="m44.8 53.1c.2-13.8.2-27.5 0-41.3a20.1 20.1 0 0 1 6.4 2.1c0 1.7.1 2.6.2 4.3a27.7 27.7 0 0 0 -4.1-1.2c.1 4.9.3 7.4.3 12.3l3.9.2v4.8h-3.9c0 5.3-.2 8-.3 13.4a38.1 38.1 0 0 0 4.5-1.3c-.1 1.7-.2 2.6-.2 4.3a22.8 22.8 0 0 1 -6.8 2.4z"/><path d="m56.5 47.7a16.7 16.7 0 0 1 -3.5 2.4 319.8 319.8 0 0 0 0-35.3 18.5 18.5 0 0 1 3.4 2.3c2.5 2 5.7 6.9 5.2 16.3-.4 7.8-2.3 12.1-5.1 14.3zm-.1-27.2-1.1-.6a149.1 149.1 0 0 1 0 25l1.2-.7c1.5-.8 2.6-2.7 2.9-10.7s-1.7-12.2-3-13z"/></g><rect fill="none" height="64" rx="12" stroke="#df1e2e" stroke-miterlimit="10" width="64" x=".5" y=".5"/></svg>